<?xml version="1.0" encoding="UTF-8"?>
<svg id="Layer_1" data-name="Layer 1" xmlns="http://www.w3.org/2000/svg" viewBox="0 0 217.06 251.05">
  <defs>
    <style>
      .cls-1 {
        fill: #22405b;
      }

      .cls-2 {
        fill: #fdfdfd;
      }
    </style>
  </defs>
  <path class="cls-2" d="M98.89,17c1.13-.36,1.37-1.5,1.09-2.35-.31-.96-1.29-1.41-2.38-1.18s-1.58,1.5-1.24,2.42,1.42,1.46,2.53,1.11Z"/>
  <path class="cls-2" d="M135.47,26.53c-.85-2-.83-4.21-.15-6.14s2.28-2.94,4.25-2.86c1.87.07,3.36,1.09,3.88,2.98,1.18.2,2.31.2,3.53,0-.43-3.78-3.56-6.14-7.22-6.21-2.98-.06-5.69,1.13-7.25,3.78-1.37,2.34-1.6,5.16-1.1,7.81.77,4.06,4.11,6.46,8.17,6.43,3.72-.02,7.01-2.31,7.42-6.16-1.3-.1-2.37-.07-3.55,0-.55,1.87-2.03,2.91-3.77,2.98s-3.42-.75-4.21-2.61Z"/>
  <path class="cls-2" d="M179.42,29.17c-.77.04-2.03.23-2.16-.48-.44-2.36-.1-4.7-.26-7.08.95-.17,1.69.09,2.56-.17.08-.93.12-1.82,0-2.67-.94-.05-1.66.1-2.46-.12l-.14-3.15c-1.13-.09-2.19-.1-3.29,0l-.07,3.2-1.72.09c-.21.93-.19,1.85-.03,2.72l1.77.1v7.35c0,2.83,3.75,3.88,6.02,2.97.09-.96.14-1.85-.21-2.76Z"/>
  <path class="cls-2" d="M90.17,31.92l.09-7.82c.02-1.95,2.35-2.79,4.29-2.32.18-1.08.11-2.04.09-3.06-1.85-.64-3.69.08-4.42,1.98-.23-.62-.07-1.18-.24-1.88-1.13-.07-2.15-.11-3.32.03v13.07c1.25.09,2.35.11,3.51,0Z"/>
  <path class="cls-2" d="M106.51,28.27c-1.08-1.68-.97-4-.01-5.63.62-1.06,1.76-1.21,2.85-1.16s1.4,1.14,2.16,1.88c.8.61,2.31.06,3.26.13-.11-3.04-2.57-4.81-5.44-5-3.87-.26-6.87,2.22-7.17,6.13-.19,2.57.48,5.2,2.77,6.65,2.15,1.36,5,1.4,7.25.27,1.68-.84,2.68-2.45,2.62-4.22-1.15-.1-2.21-.1-3.39-.03-.39,1.13-1.02,2.01-2.07,2.11s-2.16-.08-2.84-1.13Z"/>
  <path class="cls-2" d="M166.46,31.9c.21-2.86-.19-5.4.16-8.02.26-1.93,2.47-2.5,4.16-2.09.19-1.06.06-1.98.09-3.11-1.72-.54-3.61.08-4.2,1.9-.41-.64-.13-1.13-.33-1.72-1.07-.19-2.14-.14-3.35-.02v13.09c1.21.05,2.35.11,3.47-.04Z"/>
  <path class="cls-2" d="M99.93,31.91l-.02-13.07c-1.23-.12-2.29-.16-3.46.02l.02,13.11c1.27-.01,2.27.13,3.45-.06Z"/>
  <path class="cls-2" d="M79.45,26.4c-1.45.12-2.84.07-4.37.11l-.12,5.45c-1.19.06-2.26.07-3.51,0l-.03-17.38,7.62-.02c3.61,0,5.9,3.04,5.58,6.48-.27,2.9-2.01,5.11-5.16,5.36ZM80.9,20.67c.08-1.61-.78-2.84-2.24-3.04-1.25-.17-2.49-.17-3.68,0l.04,5.72c1.36.08,2.69.17,4-.1,1.19-.24,1.81-1.28,1.88-2.58Z"/>
  <path class="cls-2" d="M135.47,26.53c.79,1.86,2.44,2.67,4.21,2.61s3.22-1.11,3.77-2.98c1.18-.08,2.26-.11,3.55,0-.41,3.85-3.7,6.14-7.42,6.16-4.07.02-7.4-2.37-8.17-6.43-.5-2.65-.27-5.47,1.1-7.81,1.56-2.65,4.27-3.84,7.25-3.78,3.66.07,6.79,2.43,7.22,6.21-1.22.21-2.35.2-3.53,0-.52-1.89-2.01-2.91-3.88-2.98-1.97-.07-3.59.97-4.25,2.86s-.69,4.14.15,6.14Z"/>
  <path class="cls-2" d="M121.97,29.38c3.58,1.1,2.12-2.34,7.07-1.3-.23,1.09-.61,1.99-1.42,2.64-2.51,2.04-6.29,2.18-8.9.22-2.07-1.56-2.58-4.16-2.33-6.6.38-3.66,3.28-6.06,6.93-5.85,4.52.26,6.41,3.88,5.89,7.83l-9.39.15c.03,1.6,1.08,2.57,2.15,2.9ZM125.89,24.05c-.17-1.96-1.65-2.77-3.22-2.69-1.43.07-2.69,1.09-2.72,2.72l5.94-.03Z"/>
  <path class="cls-2" d="M149.54,31.03c-1.39-1.29-1.34-3.76-.21-5.05,2.59-2.97,8.54-.58,7.19-3.68-.15-.35-.61-.67-1.12-.8-1.44-.37-2.42.21-3.25,1.22-.86.38-2.21,0-3.16-.09.76-3.95,4.87-4.69,8.04-3.8,2.16.6,3.28,2.47,3.28,4.65l-.02,8.38c-1.12.23-2.19.11-3.31.08-.15-.44.07-.76-.24-1.25-1.8,1.85-5.06,2.3-7.18.33ZM153.69,29.65c1.07.03,1.98-.38,2.53-.98.62-.68.61-1.63.44-2.56-1.52.65-4.92.19-4.73,2.14.08.79.76,1.37,1.76,1.4Z"/>
  <path class="cls-2" d="M106.51,28.27c.68,1.06,1.82,1.22,2.84,1.13s1.68-.98,2.07-2.11c1.18-.08,2.24-.07,3.39.03.06,1.78-.94,3.39-2.62,4.22-2.25,1.12-5.1,1.09-7.25-.27-2.29-1.45-2.96-4.09-2.77-6.65.3-3.91,3.3-6.4,7.17-6.13,2.87.19,5.33,1.96,5.44,5-.95-.07-2.46.49-3.26-.13-.76-.74-1.09-1.83-2.16-1.88s-2.23.09-2.85,1.16c-.95,1.63-1.07,3.94.01,5.63Z"/>
  <path class="cls-2" d="M179.42,29.17c.35.91.3,1.8.21,2.76-2.27.9-6.02-.14-6.02-2.97v-7.35s-1.77-.1-1.77-.1c-.17-.88-.18-1.8.03-2.72l1.72-.09.07-3.2c1.1-.11,2.16-.1,3.29,0l.14,3.15c.8.22,1.52.07,2.46.12.13.85.09,1.73,0,2.67-.87.26-1.61,0-2.56.17.16,2.38-.18,4.72.26,7.08.13.71,1.39.52,2.16.48Z"/>
  <path class="cls-2" d="M166.46,31.9c-1.12.15-2.26.09-3.46.04v-13.09c1.19-.12,2.26-.17,3.34.02.2.59-.08,1.08.33,1.72.59-1.82,2.48-2.44,4.2-1.9-.03,1.13.1,2.05-.09,3.11-1.69-.41-3.89.16-4.16,2.09-.35,2.61.04,5.16-.16,8.02Z"/>
  <path class="cls-2" d="M90.17,31.92c-1.16.12-2.26.1-3.51,0v-13.07c1.17-.14,2.18-.1,3.31-.03.17.7.01,1.26.24,1.88.74-1.9,2.57-2.62,4.42-1.98.02,1.02.09,1.99-.09,3.06-1.94-.48-4.27.36-4.29,2.32l-.09,7.82Z"/>
  <path class="cls-2" d="M99.93,31.91c-1.19.19-2.19.04-3.45.06l-.02-13.11c1.16-.17,2.22-.13,3.46-.02l.02,13.07Z"/>
  <path class="cls-2" d="M98.89,17c-1.11.35-2.18-.18-2.53-1.11s.13-2.18,1.24-2.42,2.07.22,2.38,1.18c.27.85.04,1.99-1.09,2.35Z"/>
  <path class="cls-2" d="M40.37,46.8l-17.36-12.82c-2.59-1.91-2.68-4.98-.76-7.5l15.83-20.91c1.31-1.73,3.19-2.63,5.26-3.01L56.89.08c2.28-.42,4.47.8,5.03,3.12l3.67,15.29c.57,2.35-.71,4.52-2.06,6.32l-14.89,19.87c-1.94,2.58-5.1,4.46-8.27,2.12ZM53.82,12.73c2.68.59,4.77-1.28,4.79-3.66s-1.89-4.07-4.36-3.74c-1.9.25-3.25,1.71-3.32,3.41-.07,1.81.83,3.54,2.88,3.99ZM36.11,29.59c1.66,1.25,2.82,2.42,4.38,3.22,3.89,2,8.41.47,10.72-2.87s1.94-8.26-1.32-11.06c-1.95-1.67-3.96-3-6-4.56-.76-.59-2.25-.88-2.93.03l-11.71,15.81c-.38.52-.9,1.3-.38,1.92.79.95,2.07,1.69,3.27,2.04l3.96-4.53Z"/>
  <path class="cls-1" d="M36.11,29.59l-3.96,4.53c-1.2-.35-2.48-1.08-3.27-2.04-.52-.62,0-1.41.38-1.92l11.71-15.81c.67-.91,2.16-.62,2.93-.03,2.04,1.57,4.05,2.89,6,4.56,3.26,2.8,3.73,7.57,1.32,11.06s-6.82,4.87-10.72,2.87c-1.56-.8-2.71-1.97-4.38-3.22ZM43,28.81c2.08.69,3.98-.67,4.7-2.3,1.48-3.35-1.76-5.34-4.62-6.93-1.51,1.96-2.99,3.76-4.29,5.79-.6.93,3.66,3.25,4.21,3.44Z"/>
  <path class="cls-1" d="M53.82,12.73c-2.06-.45-2.96-2.17-2.88-3.99.07-1.7,1.42-3.16,3.32-3.41,2.47-.32,4.38,1.47,4.36,3.74s-2.11,4.24-4.79,3.66Z"/>
  <path class="cls-2" d="M43,28.81c-.55-.18-4.81-2.5-4.21-3.44,1.3-2.03,2.78-3.83,4.29-5.79,2.86,1.59,6.09,3.57,4.62,6.93-.72,1.63-2.62,2.99-4.7,2.3Z"/>
  <path class="cls-2" d="M53.1,11.31l-.18-.15.76-.81s.04-.07.03-.1c0-.04-.03-.07-.06-.09l-.96-.57.39-.22s.04-.06.03-.09l-.29-1.53.29.08s.08-.01.1-.05l.29-.71.43.56s.07.05.11.03l.31-.15.04.8s.03.07.07.07c.04,0,.07,0,.09-.04l.67-1.2.17.46s.06.06.11.05l.87-.36-.22.91s.02.09.07.1l.48.09-1.07.86s-.04.07-.02.1.05.05.09.05l.79-.09-.1.34s0,.07.04.09l.63.34-.66.4s-.05.06-.04.1l.13.28-1.55-.04s-.07.02-.09.06l-.15.4h0s-.71-.85-.71-.85c-.05-.06-.14-.06-.19,0l-.67.88Z"/>
</svg>