<?xml version="1.0" encoding="UTF-8"?>
<svg id="Layer_1" data-name="Layer 1" xmlns="http://www.w3.org/2000/svg" viewBox="0 0 147.12 157.13">
  <defs>
    <style>
      .cls-1 {
        fill: #24af79;
      }

      .cls-2 {
        fill: #e2e3e2;
      }
    </style>
  </defs>
  <path class="cls-1" d="M63.85,153.64L6.85,111.53c-8.52-6.3-8.78-16.33-2.52-24.63L56.3,18.27c4.3-5.67,10.48-8.63,17.3-9.89L118.08.27c7.48-1.37,14.7,2.63,16.52,10.22l12.07,50.19c1.85,7.74-2.33,14.85-6.78,20.74l-48.89,65.26c-6.37,8.48-16.74,14.63-27.15,6.96h0ZM108,41.79c8.82,1.93,15.67-4.19,15.74-12s-6.19-13.33-14.3-12.3c-6.22.81-10.67,5.63-10.89,11.19-.26,5.96,2.7,11.63,9.48,13.07l-.04.04ZM49.85,97.16c5.44,4.11,9.26,7.96,14.37,10.59,12.78,6.56,27.59,1.56,35.19-9.44,7.59-11,6.37-27.11-4.33-36.3-6.41-5.48-13-9.85-19.7-14.96-2.52-1.93-7.41-2.89-9.59.11l-38.45,51.89c-1.26,1.7-2.93,4.26-1.22,6.33,2.59,3.11,6.82,5.56,10.74,6.7l13-14.85v-.07Z"/>
  <path class="cls-2" d="M49.85,97.16l-13,14.85c-3.93-1.15-8.15-3.56-10.74-6.7-1.7-2.04,0-4.63,1.22-6.33l38.45-51.89c2.22-3,7.11-2.04,9.59-.11,6.7,5.15,13.3,9.48,19.7,14.96,10.7,9.19,12.22,24.85,4.33,36.3-7.89,11.44-22.41,16-35.19,9.44-5.11-2.63-8.93-6.48-14.37-10.59v.07ZM72.48,94.6c6.85,2.26,13.07-2.19,15.44-7.56,4.85-11-5.78-17.52-15.15-22.74-4.96,6.41-9.82,12.33-14.11,19-1.96,3.07,12.04,10.67,13.82,11.3h0Z"/>
  <path class="cls-2" d="M108,41.79c-6.74-1.48-9.7-7.15-9.48-13.07.22-5.59,4.67-10.37,10.89-11.19,8.11-1.07,14.37,4.81,14.3,12.3s-6.93,13.93-15.74,12l.04-.04Z"/>
  <path class="cls-1" d="M72.48,94.6c-1.78-.59-15.78-8.22-13.82-11.3,4.3-6.67,9.11-12.59,14.11-19,9.41,5.22,20,11.74,15.15,22.74-2.37,5.37-8.59,9.82-15.44,7.56h0Z"/>
  <path class="cls-1" d="M105.63,37.12l-.59-.48,2.52-2.67s.11-.22.11-.33c0-.15-.07-.22-.22-.3l-3.15-1.85,1.3-.74s.11-.19.11-.3l-.93-5,.96.26s.3-.04.33-.19l.96-2.33,1.41,1.85s.22.15.33.11l1-.52.11,2.63s.11.22.22.26c.11,0,.22,0,.3-.15l2.22-3.93.56,1.52s.22.19.33.15l2.85-1.19-.7,3s.07.3.22.33l1.56.3-3.52,2.81s-.15.22-.07.33.15.19.3.15l2.59-.3-.33,1.11s0,.22.15.3l2.07,1.11-2.15,1.33s-.19.22-.11.33l.41.93-5.11-.11s-.22.07-.3.19l-.48,1.3h0l-2.33-2.81c-.19-.19-.48-.19-.63,0l-2.22,2.89h-.07Z"/>
</svg>