<?xml version="1.0" encoding="UTF-8"?>
<svg id="Layer_1" data-name="Layer 1" xmlns="http://www.w3.org/2000/svg" viewBox="0 0 260.87 78.64">
  <defs>
    <style>
      .cls-1 {
        fill: #24af79;
      }

      .cls-2 {
        fill: #22405b;
      }

      .cls-3 {
        fill: #e2e3e2;
      }

      .cls-4 {
        fill: #fdfdfd;
      }
    </style>
  </defs>
  <path class="cls-4" d="M128.08,27.93c1.86-.59,2.25-2.46,1.79-3.86-.51-1.58-2.12-2.32-3.91-1.94s-2.6,2.46-2.04,3.98,2.33,2.4,4.16,1.82Z"/>
  <path class="cls-1" d="M188.2,43.57c-1.4-3.29-1.36-6.92-.25-10.09s3.75-4.83,6.98-4.7c3.07.12,5.52,1.79,6.37,4.9,1.94.33,3.8.33,5.8,0-.71-6.21-5.85-10.09-11.86-10.2-4.9-.1-9.35,1.86-11.91,6.21-2.25,3.84-2.63,8.48-1.81,12.83,1.27,6.67,6.75,10.61,13.42,10.56,6.11-.03,11.52-3.8,12.19-10.12-2.14-.16-3.89-.12-5.83,0-.9,3.07-3.34,4.78-6.19,4.9s-5.62-1.23-6.92-4.29h0Z"/>
  <path class="cls-1" d="M260.4,47.91c-1.27.07-3.34.38-3.55-.79-.72-3.88-.16-7.72-.43-11.63,1.56-.28,2.78.15,4.21-.28.13-1.53.2-2.99,0-4.39-1.54-.08-2.73.16-4.04-.2l-.23-5.18c-1.86-.15-3.6-.16-5.41,0l-.12,5.26-2.83.15c-.35,1.53-.31,3.04-.05,4.47l2.91.16v12.08c0,4.65,6.16,6.37,9.89,4.88.15-1.58.23-3.04-.35-4.53h-.02Z"/>
  <path class="cls-4" d="M113.77,52.45l.15-12.85c.03-3.2,3.86-4.58,7.05-3.81.3-1.77.18-3.35.15-5.03-3.04-1.05-6.06.13-7.26,3.25-.38-1.02-.12-1.94-.39-3.09-1.86-.12-3.53-.18-5.45.05v21.47c2.05.15,3.86.18,5.77,0Z"/>
  <path class="cls-4" d="M140.62,46.43c-1.77-2.76-1.59-6.57-.02-9.25,1.02-1.74,2.89-1.99,4.68-1.91s2.3,1.87,3.55,3.09c1.31,1,3.8.1,5.36.21-.18-4.99-4.22-7.9-8.94-8.21-6.36-.43-11.29,3.65-11.78,10.07-.31,4.22.79,8.54,4.55,10.93,3.53,2.23,8.21,2.3,11.91.44,2.76-1.38,4.4-4.03,4.3-6.93-1.89-.16-3.63-.16-5.57-.05-.64,1.86-1.68,3.3-3.4,3.47s-3.55-.13-4.67-1.86h.02Z"/>
  <path class="cls-1" d="M239.1,52.41c.35-4.7-.31-8.87.26-13.18.43-3.17,4.06-4.11,6.83-3.43.31-1.74.1-3.25.15-5.11-2.83-.89-5.93.13-6.9,3.12-.67-1.05-.21-1.86-.54-2.83-1.76-.31-3.52-.23-5.5-.03v21.51c1.99.08,3.86.18,5.7-.07v.02Z"/>
  <path class="cls-4" d="M129.8,52.41l-.03-21.47c-2.02-.2-3.76-.26-5.68.03l.03,21.54c2.09-.02,3.73.21,5.67-.1h.02Z"/>
  <path class="cls-2" d="M96.16,43.36c-2.38.2-4.67.12-7.18.18l-.2,8.95c-1.96.1-3.71.12-5.77,0l-.05-28.55,12.52-.03c5.93,0,9.69,4.99,9.17,10.65-.44,4.76-3.3,8.4-8.48,8.81h-.02ZM98.52,33.96c.13-2.65-1.28-4.67-3.68-4.99-2.05-.28-4.09-.28-6.05,0l.07,9.4c2.23.13,4.42.28,6.57-.16,1.96-.39,2.97-2.1,3.09-4.24Z"/>
  <path class="cls-1" d="M188.2,43.57c1.3,3.06,4.01,4.39,6.92,4.29s5.29-1.82,6.19-4.9c1.94-.13,3.71-.18,5.83,0-.67,6.33-6.08,10.09-12.19,10.12-6.69.03-12.16-3.89-13.42-10.56-.82-4.35-.44-8.99,1.81-12.83,2.56-4.35,7.02-6.31,11.91-6.21,6.01.12,11.16,3.99,11.86,10.2-2,.35-3.86.33-5.8,0-.85-3.11-3.3-4.78-6.37-4.9-3.24-.12-5.9,1.59-6.98,4.7s-1.13,6.8.25,10.09h0Z"/>
  <path class="cls-2" d="M166.02,48.26c5.88,1.81,3.48-3.84,11.62-2.14-.38,1.79-1,3.27-2.33,4.34-4.12,3.35-10.33,3.58-14.62.36-3.4-2.56-4.24-6.83-3.83-10.84.62-6.01,5.39-9.96,11.39-9.61,7.43.43,10.53,6.37,9.68,12.86l-15.43.25c.05,2.63,1.77,4.22,3.53,4.76v.02ZM172.44,39.5c-.28-3.22-2.71-4.55-5.29-4.42-2.35.12-4.42,1.79-4.47,4.47l9.76-.05Z"/>
  <path class="cls-1" d="M211.3,50.98c-2.28-2.12-2.2-6.18-.35-8.3,4.26-4.88,14.03-.95,11.81-6.05-.25-.58-1-1.1-1.84-1.31-2.37-.61-3.98.35-5.34,2-1.41.62-3.63,0-5.19-.15,1.25-6.49,8-7.71,13.21-6.24,3.55.99,5.39,4.06,5.39,7.64l-.03,13.77c-1.84.38-3.6.18-5.44.13-.25-.72.12-1.25-.39-2.05-2.96,3.04-8.31,3.78-11.8.54l-.03.02ZM218.13,48.7c1.76.05,3.25-.62,4.16-1.61,1.02-1.12,1-2.68.72-4.21-2.5,1.07-8.08.31-7.77,3.52.13,1.3,1.25,2.25,2.89,2.3Z"/>
  <path class="cls-2" d="M140.62,46.43c1.12,1.74,2.99,2,4.67,1.86s2.76-1.61,3.4-3.47c1.94-.13,3.68-.12,5.57.05.1,2.92-1.54,5.57-4.3,6.93-3.7,1.84-8.38,1.79-11.91-.44-3.76-2.38-4.86-6.72-4.55-10.93.49-6.42,5.42-10.52,11.78-10.07,4.72.31,8.76,3.22,8.94,8.21-1.56-.12-4.04.81-5.36-.21-1.25-1.22-1.79-3.01-3.55-3.09s-3.66.15-4.68,1.91c-1.56,2.68-1.76,6.47.02,9.25h-.02Z"/>
  <path class="cls-1" d="M260.4,47.91c.58,1.5.49,2.96.35,4.53-3.73,1.48-9.89-.23-9.89-4.88v-12.08l-2.91-.16c-.28-1.45-.3-2.96.05-4.47l2.83-.15.12-5.26c1.81-.18,3.55-.16,5.41,0l.23,5.18c1.31.36,2.5.12,4.04.2.21,1.4.15,2.84,0,4.39-1.43.43-2.65,0-4.21.28.26,3.91-.3,7.75.43,11.63.21,1.17,2.28.85,3.55.79h.02Z"/>
  <path class="cls-1" d="M239.1,52.41c-1.84.25-3.71.15-5.68.07v-21.51c1.96-.2,3.71-.28,5.49.03.33.97-.13,1.77.54,2.83.97-2.99,4.07-4.01,6.9-3.12-.05,1.86.16,3.37-.15,5.11-2.78-.67-6.39.26-6.83,3.43-.58,4.29.07,8.48-.26,13.18v-.02Z"/>
  <path class="cls-2" d="M113.77,52.45c-1.91.2-3.71.16-5.77,0v-21.47c1.92-.23,3.58-.16,5.44-.05.28,1.15.02,2.07.39,3.09,1.22-3.12,4.22-4.3,7.26-3.25.03,1.68.15,3.27-.15,5.03-3.19-.79-7.02.59-7.05,3.81l-.15,12.85h.02Z"/>
  <path class="cls-2" d="M129.8,52.41c-1.96.31-3.6.07-5.67.1l-.03-21.54c1.91-.28,3.65-.21,5.68-.03l.03,21.47h-.02Z"/>
  <path class="cls-2" d="M128.08,27.93c-1.82.58-3.58-.3-4.16-1.82s.21-3.58,2.04-3.98,3.4.36,3.91,1.94c.44,1.4.07,3.27-1.79,3.86Z"/>
  <g>
    <path class="cls-1" d="M31.95,76.88L3.43,55.81c-4.26-3.14-4.4-8.18-1.25-12.32L28.19,9.14c2.15-2.84,5.24-4.32,8.64-4.95L59.09.13c3.75-.69,7.34,1.31,8.26,5.13l6.03,25.12c.94,3.86-1.17,7.43-3.38,10.38l-24.46,32.65c-3.19,4.24-8.38,7.33-13.59,3.48v-.02ZM54.05,20.9c4.4.97,7.84-2.1,7.87-6.01s-3.11-6.69-7.16-6.14c-3.12.41-5.34,2.81-5.45,5.6-.12,2.97,1.36,5.82,4.73,6.56h.02ZM24.93,48.6c2.73,2.05,4.63,3.98,7.2,5.29,6.39,3.29,13.82.77,17.61-4.72s3.19-13.57-2.17-18.17c-3.2-2.74-6.51-4.93-9.86-7.49-1.25-.97-3.7-1.45-4.81.05l-19.24,25.98c-.62.85-1.48,2.14-.62,3.15,1.3,1.56,3.4,2.78,5.37,3.35l6.51-7.44h.02Z"/>
    <path class="cls-3" d="M24.93,48.6l-6.51,7.44c-1.97-.58-4.07-1.77-5.37-3.35-.85-1.02,0-2.32.62-3.15l19.24-25.98c1.1-1.5,3.55-1.02,4.81-.05,3.35,2.58,6.65,4.75,9.86,7.49,5.36,4.6,6.13,12.44,2.17,18.17-3.96,5.73-11.21,8-17.61,4.72-2.56-1.31-4.45-3.24-7.2-5.29h-.02ZM36.27,47.34c3.42,1.13,6.54-1.1,7.72-3.78,2.43-5.5-2.89-8.77-7.59-11.39-2.48,3.22-4.91,6.18-7.05,9.51-.99,1.53,6.01,5.34,6.92,5.65Z"/>
    <path class="cls-3" d="M54.05,20.9c-3.38-.74-4.86-3.57-4.73-6.56.12-2.79,2.33-5.19,5.45-5.6,4.06-.53,7.2,2.42,7.16,6.14s-3.47,6.97-7.87,6.01h-.02Z"/>
    <path class="cls-1" d="M36.27,47.34c-.9-.3-7.9-4.11-6.92-5.65,2.14-3.34,4.57-6.29,7.05-9.51,4.7,2.61,10.01,5.87,7.59,11.39-1.18,2.68-4.3,4.91-7.72,3.78Z"/>
    <path class="cls-1" d="M52.85,18.57l-.3-.25,1.25-1.33s.07-.12.05-.16c0-.07-.05-.12-.1-.15l-1.58-.94.64-.36s.07-.1.05-.15l-.48-2.51.48.13s.13-.02.16-.08l.48-1.17.71.92s.12.08.18.05l.51-.25.07,1.31s.05.12.12.12.12,0,.15-.07l1.1-1.97.28.76s.1.1.18.08l1.43-.59-.36,1.5s.03.15.12.16l.79.15-1.76,1.41s-.07.12-.03.16.08.08.15.08l1.3-.15-.16.56s0,.12.07.15l1.04.56-1.08.66s-.08.1-.07.16l.21.46-2.55-.07s-.12.03-.15.1l-.25.66h0l-1.17-1.4c-.08-.1-.23-.1-.31,0l-1.1,1.45h-.05Z"/>
  </g>
</svg>