<?xml version="1.0" encoding="UTF-8"?>
<svg id="Layer_1" data-name="Layer 1" xmlns="http://www.w3.org/2000/svg" viewBox="0 0 217.06 251.05">
  <defs>
    <style>
      .cls-1 {
        fill: #527ebf;
      }

      .cls-2 {
        fill: #22405b;
      }

      .cls-3 {
        fill: #fdfdfd;
      }
    </style>
  </defs>
  <path class="cls-3" d="M33.91,172.37l-15.39-11.37c-2.3-1.7-2.37-4.41-.68-6.65l14.03-18.53c1.16-1.53,2.83-2.33,4.67-2.67l12.01-2.19c2.02-.37,3.97.71,4.46,2.76l3.26,13.55c.5,2.09-.63,4.01-1.83,5.6l-13.2,17.62c-1.72,2.29-4.52,3.95-7.33,1.88ZM45.83,142.17c2.38.52,4.23-1.13,4.25-3.24s-1.67-3.6-3.86-3.32c-1.68.22-2.88,1.52-2.94,3.02-.07,1.61.73,3.14,2.56,3.53ZM30.13,157.12c1.47,1.11,2.5,2.15,3.88,2.86,3.45,1.77,7.45.42,9.5-2.55s1.72-7.32-1.17-9.8c-1.73-1.48-3.51-2.66-5.32-4.04-.68-.52-2-.78-2.59.03l-10.38,14.01c-.34.46-.79,1.15-.33,1.71.7.84,1.84,1.5,2.9,1.81l3.51-4.01Z"/>
  <path class="cls-2" d="M30.13,157.12l-3.51,4.01c-1.06-.31-2.2-.96-2.9-1.81-.46-.55,0-1.25.33-1.71l10.38-14.01c.6-.81,1.92-.55,2.59-.03,1.81,1.39,3.59,2.56,5.32,4.04,2.89,2.48,3.3,6.71,1.17,9.8s-6.05,4.32-9.5,2.55c-1.38-.71-2.41-1.75-3.88-2.86ZM36.24,156.43c1.85.61,3.53-.59,4.17-2.04,1.31-2.97-1.56-4.73-4.09-6.14-1.34,1.73-2.65,3.33-3.81,5.13-.53.83,3.25,2.88,3.73,3.05Z"/>
  <path class="cls-2" d="M45.83,142.17c-1.82-.4-2.62-1.93-2.56-3.53.06-1.51,1.26-2.8,2.94-3.02,2.19-.29,3.88,1.3,3.86,3.32s-1.87,3.76-4.25,3.24Z"/>
  <path class="cls-3" d="M36.24,156.43c-.48-.16-4.26-2.22-3.73-3.05,1.16-1.8,2.46-3.4,3.81-5.13,2.54,1.41,5.4,3.17,4.09,6.14-.64,1.45-2.32,2.65-4.17,2.04Z"/>
  <path class="cls-1" d="M45.19,140.91l-.16-.13.68-.72s.03-.06.03-.09c0-.04-.02-.06-.06-.08l-.85-.5.35-.2s.03-.05.03-.08l-.25-1.35.26.07s.08-.01.09-.05l.26-.63.38.5s.06.04.09.03l.27-.14.03.71s.03.06.06.07c.03,0,.06,0,.08-.04l.6-1.06.15.41s.06.05.09.04l.77-.32-.19.81s.02.08.06.09l.42.08-.95.76s-.04.06-.02.09.04.05.08.04l.7-.08-.09.3s0,.06.04.08l.56.3-.58.36s-.05.06-.03.09l.11.25-1.38-.03s-.06.02-.08.05l-.13.35h0s-.63-.76-.63-.76c-.05-.05-.13-.05-.17,0l-.6.78Z"/>
</svg>